<?xml version="1.0" encoding="utf-8"?><svg xmlns="http://www.w3.org/2000/svg" xmlns:xlink="http://www.w3.org/1999/xlink"><symbol viewBox="0 0 188.7 306" id="arrow" xmlns="http://www.w3.org/2000/svg"><path d="M247.35 35.7L211.65 0l-153 153 153 153 35.7-35.7L130.05 153z"/></symbol><symbol viewBox="0 0 24.75 21" id="burger-menu" xmlns="http://www.w3.org/2000/svg"><path d="M0 3.875a2 2 0 012-2h20.75a2 2 0 010 4H2a2 2 0 01-2-2zm22.75 6.5H2a2 2 0 000 4h20.75a2 2 0 000-4zm0 8.5H2a2 2 0 000 4h20.75a2 2 0 000-4z"/></symbol><symbol viewBox="0 0 24.75 21" id="burger-menu2" xmlns="http://www.w3.org/2000/svg"><path d="M0 3.875a2 2 0 012-2h20.75a2 2 0 010 4H2a2 2 0 01-2-2zm22.75 6.5H2a2 2 0 000 4h20.75a2 2 0 000-4zm0 8.5H2a2 2 0 000 4h20.75a2 2 0 000-4z"/></symbol><symbol viewBox="0 0 510 510" id="help-round-button" xmlns="http://www.w3.org/2000/svg"><path d="M255 0C114.75 0 0 114.75 0 255s114.75 255 255 255 255-114.75 255-255S395.25 0 255 0zm25.5 433.5h-51v-51h51v51zm53.55-196.35L311.1 260.1c-20.399 17.851-30.6 33.15-30.6 71.4h-51v-12.75c0-28.05 10.2-53.55 30.6-71.4l30.6-33.15c10.2-7.65 15.3-20.4 15.3-35.7 0-28.05-22.95-51-51-51s-51 22.95-51 51h-51c0-56.1 45.9-102 102-102s102 45.9 102 102c0 22.95-10.2 43.35-22.95 58.65z"/></symbol><symbol viewBox="0 0 475.09 475.08" id="search" xmlns="http://www.w3.org/2000/svg"><path d="M464.524 412.846l-97.929-97.925c23.6-34.068 35.406-72.047 35.406-113.917 0-27.218-5.284-53.249-15.852-78.087-10.561-24.842-24.838-46.254-42.825-64.241-17.987-17.987-39.396-32.264-64.233-42.826C254.246 5.285 228.217.003 200.999.003c-27.216 0-53.247 5.282-78.085 15.847C98.072 26.412 76.66 40.689 58.673 58.676c-17.989 17.987-32.264 39.403-42.827 64.241C5.282 147.758 0 173.786 0 201.004c0 27.216 5.282 53.238 15.846 78.083 10.562 24.838 24.838 46.247 42.827 64.234 17.987 17.993 39.403 32.264 64.241 42.832 24.841 10.563 50.869 15.844 78.085 15.844 41.879 0 79.852-11.807 113.922-35.405l97.929 97.641c6.852 7.231 15.406 10.849 25.693 10.849 9.897 0 18.467-3.617 25.694-10.849 7.23-7.23 10.848-15.796 10.848-25.693.003-10.082-3.518-18.651-10.561-25.694zM291.363 291.358c-25.029 25.033-55.148 37.549-90.364 37.549-35.21 0-65.329-12.519-90.36-37.549-25.031-25.029-37.546-55.144-37.546-90.36 0-35.21 12.518-65.334 37.546-90.36 25.026-25.032 55.15-37.546 90.36-37.546 35.212 0 65.331 12.519 90.364 37.546 25.033 25.026 37.548 55.15 37.548 90.36 0 35.216-12.519 65.331-37.548 90.36z"/></symbol></svg>